# xmcd
#
# Track frame offsets:
#	182
#	23065
#	42697
#
# Disc length: 812 seconds
#
# Revision: 0
# Processed by: cddbd v1.5.1PL0 Copyright (c) Steve Scherf et al.
# Submitted via: audiograbber 1.83.01
#
DISCID=20032a03
DTITLE=Bonnie Raitt - Not the Only One
DYEAR=1991
DGENRE=Rock
TTITLE0=Not the Only One
TTITLE1=Come to Me
TTITLE2=Reight Place Wrong Time
EXTD=
EXTT0=
EXTT1=
EXTT2=
PLAYORDER=
